# xmcd
#
# Track frame offsets:
#	150
#	16415
#	27220
#	39790
#	52620
#	64703
#	77648
#	93398
#	108265
#	118728
#	129990
#	140178
#	153665
#	168100
#	180680
#	194173
#	205618
#	216433
#	230103
#	244010
#	254548
#	269333
#	281253
#
# Disc length: 3893 seconds
#
# Revision: 1
# Processed by: cddbd v1.5.2PL0 Copyright (c) Steve Scherf et al.
# Submitted via: EasyCDDAExtractor 16.0.8.2
#
DISCID=440f3317
DTITLE=Συλλογικός δίσκος - Μιά Κυριακή 1-12-Σαββατόβραδο 13-23-Γ. Σπανός
DYEAR=1991
DGENRE=Έντεχνη λαϊκή
TTITLE0=Μπιθικώτσης Γρηγόρης - Μιά Κυριακή [Λ. Παπαδόπουλου]
TTITLE1=Μοσχολιού Βίκυ - Ξέχασε [Κ. Κωτούλα]
TTITLE2=Εμμανουήλ Χρήστος - Θα σού στείλω περιστέρι [Λ. Παπαδόπουλου]
TTITLE3=Μοσχολιού Βίκυ - Μπρος στο μπαλκόνι σου [Γ. Παπαστεφάνου]
TTITLE4=Εμμανουήλ Χρήστος - Η πληρωμή [Μ. Ελευθερίου]
TTITLE5=Μοσχολιού Βίκυ - Παίρνει τους δρόμους η καρδιά [Λ. Παπαδόπουλου]
TTITLE6=Κόκοτας Σταμάτης - Πες πως μ' αντάμωσες [Λ. Παπαδόπουλου]
TTITLE7=Μοσχολιού Βίκυ - Τι σού 'φταιξαν τα νειάτα μου [Λ. Παπαδόπουλου]
TTITLE8=Κόκοτας Σταμάτης - Πού σε είδα, πού σε ξέρω [Κ. Γεωργουσόπουλου]
TTITLE9=Κόκοτας Σταμάτης - Γειτονάκι μου [Λ. Παπαδόπουλου]
TTITLE10=Μπιθικώτσης Γρηγόρης-Γκίκα Βούλα - Ας ερχόσουν κι ας βρεχόσουν [Κ. Κω
TTITLE10=τούλα]
TTITLE11=Μπιθικώτσης Γρηγόρης - Ο μπαγλαμάς [Λ. Παπαδόπουλου]
TTITLE12=Κόκοτας Σταμάτης - Ο τρελλός[Λ. Παπαδόπουλου]
TTITLE13=Κόκοτας Σταμάτης - Τα ματάκια σου [Λ. Παπαδόπουλου]
TTITLE14=Μοσχολιού Βίκυ - Τα χέρια [Λ. Παπαδόπουλου]
TTITLE15=Κόκοτας Σταμάτης - Μη, καλέ μου, μη [Λ. Παπαδόπουλου]
TTITLE16=Κόκοτας Σταμάτης - Καλογεράκι [Λ. Παπαδόπουλου]
TTITLE17=Μοσχολιού Βίκυ - Ξύπνησε η πόλη [Λ. Παπαδόπουλου]
TTITLE18=Μητσιάς Μανώλης - Το φεγγάρι [Λ. Παπαδόπουλου]
TTITLE19=Μητσιάς Μανώλης - Το Μαρικάκι [Λ. Παπαδόπουλου]
TTITLE20=Μοσχολιού Βίκυ - Το γράμμα [Λ. Παπαδόπουλου]
TTITLE21=Κόκοτας Σταμάτης - Οι Άγγελοι [Λ. Παπαδόπουλου]
TTITLE22=Μοσχολιού Βίκυ - Πειραιωτάκι [Λ. Παπαδόπουλου]
EXTD=
EXTT0=
EXTT1=
EXTT2=
EXTT3=
EXTT4=
EXTT5=
EXTT6=
EXTT7=
EXTT8=
EXTT9=
EXTT10=
EXTT11=
EXTT12=
EXTT13=
EXTT14=
EXTT15=
EXTT16=
EXTT17=
EXTT18=
EXTT19=
EXTT20=
EXTT21=
EXTT22=
PLAYORDER=
